<svg xmlns="http://www.w3.org/2000/svg" xmlns:xlink="http://www.w3.org/1999/xlink" width="50" zoomAndPan="magnify" viewBox="0 0 37.5 37.499999" height="50" preserveAspectRatio="xMidYMid meet" version="1.0"><defs><g/><clipPath id="7e24c73d0c"><path d="M 0 0 L 37.007812 0 L 37.007812 37.007812 L 0 37.007812 Z M 0 0 " clip-rule="nonzero"/></clipPath><clipPath id="1474b3b11b"><path d="M 3.257812 6.933594 L 33.601562 6.933594 L 33.601562 21.734375 L 3.257812 21.734375 Z M 3.257812 6.933594 " clip-rule="nonzero"/></clipPath></defs><g clip-path="url(#7e24c73d0c)"><path fill="#ffffff" d="M 0 0 L 37.007812 0 L 37.007812 37.007812 L 0 37.007812 Z M 0 0 " fill-opacity="1" fill-rule="nonzero"/></g><g clip-path="url(#1474b3b11b)"><path fill="#4c5270" d="M 33.742188 14.5 C 33.742188 18.691406 30.328125 22.09375 26.121094 22.09375 C 25.050781 22.09375 24.03125 21.871094 23.105469 21.472656 C 24.078125 20.832031 24.914062 19.996094 25.546875 19.019531 C 25.734375 19.042969 25.925781 19.054688 26.121094 19.054688 C 28.644531 19.054688 30.691406 17.015625 30.691406 14.5 C 30.691406 12.242188 29.046875 10.371094 26.882812 10.007812 L 26.882812 6.945312 C 30.734375 7.328125 33.742188 10.5625 33.742188 14.5 Z M 10.117188 18.992188 C 7.953125 18.628906 6.304688 16.757812 6.304688 14.5 C 6.304688 11.984375 8.351562 9.945312 10.878906 9.945312 C 11.074219 9.945312 11.265625 9.957031 11.453125 9.980469 C 12.085938 9.003906 12.917969 8.167969 13.894531 7.527344 C 12.96875 7.128906 11.949219 6.90625 10.878906 6.90625 C 6.667969 6.90625 3.257812 10.308594 3.257812 14.5 C 3.257812 18.4375 6.265625 21.671875 10.117188 22.054688 Z M 26.121094 9.945312 L 24.597656 9.945312 C 25.554688 11.214844 26.121094 12.792969 26.121094 14.5 C 26.121094 18.691406 22.707031 22.09375 18.5 22.09375 L 10.878906 22.09375 L 10.878906 19.054688 L 12.402344 19.054688 C 11.445312 17.785156 10.878906 16.210938 10.878906 14.5 C 10.878906 10.308594 14.289062 6.90625 18.5 6.90625 L 26.121094 6.90625 Z M 23.070312 14.5 C 23.070312 11.984375 21.023438 9.945312 18.5 9.945312 C 15.972656 9.945312 13.925781 11.984375 13.925781 14.5 C 13.925781 17.015625 15.972656 19.054688 18.5 19.054688 C 21.023438 19.054688 23.070312 17.015625 23.070312 14.5 Z M 23.070312 14.5 " fill-opacity="1" fill-rule="nonzero"/></g><g fill="#4c5270" fill-opacity="1"><g transform="translate(5.614229, 28.923482)"><g><path d="M 0.328125 0 L 0.328125 -3.40625 L 1.453125 -3.40625 C 1.691406 -3.40625 1.914062 -3.359375 2.125 -3.265625 C 2.332031 -3.179688 2.515625 -3.0625 2.671875 -2.90625 C 2.828125 -2.75 2.945312 -2.566406 3.03125 -2.359375 C 3.125 -2.160156 3.171875 -1.941406 3.171875 -1.703125 C 3.171875 -1.472656 3.125 -1.253906 3.03125 -1.046875 C 2.945312 -0.835938 2.828125 -0.65625 2.671875 -0.5 C 2.515625 -0.34375 2.332031 -0.21875 2.125 -0.125 C 1.914062 -0.0390625 1.691406 0 1.453125 0 Z M 1.078125 -0.671875 L 1.453125 -0.671875 C 1.640625 -0.671875 1.800781 -0.710938 1.9375 -0.796875 C 2.082031 -0.890625 2.195312 -1.015625 2.28125 -1.171875 C 2.375 -1.328125 2.421875 -1.503906 2.421875 -1.703125 C 2.421875 -1.898438 2.375 -2.078125 2.28125 -2.234375 C 2.195312 -2.390625 2.082031 -2.515625 1.9375 -2.609375 C 1.800781 -2.703125 1.640625 -2.75 1.453125 -2.75 L 1.078125 -2.75 Z M 1.078125 -0.671875 "/></g></g></g><g fill="#4c5270" fill-opacity="1"><g transform="translate(8.894043, 28.923482)"><g><path d="M 2.65625 -1.140625 L 2.65625 -1.015625 L 0.90625 -1.015625 C 0.925781 -0.847656 0.976562 -0.71875 1.0625 -0.625 C 1.144531 -0.539062 1.269531 -0.5 1.4375 -0.5 C 1.6875 -0.5 1.847656 -0.59375 1.921875 -0.78125 L 2.609375 -0.78125 C 2.554688 -0.539062 2.425781 -0.34375 2.21875 -0.1875 C 2.019531 -0.03125 1.765625 0.046875 1.453125 0.046875 C 1.191406 0.046875 0.96875 0 0.78125 -0.09375 C 0.59375 -0.195312 0.441406 -0.335938 0.328125 -0.515625 C 0.222656 -0.691406 0.171875 -0.898438 0.171875 -1.140625 C 0.171875 -1.378906 0.222656 -1.585938 0.328125 -1.765625 C 0.441406 -1.941406 0.59375 -2.078125 0.78125 -2.171875 C 0.96875 -2.273438 1.179688 -2.328125 1.421875 -2.328125 C 1.671875 -2.328125 1.882812 -2.273438 2.0625 -2.171875 C 2.25 -2.078125 2.394531 -1.941406 2.5 -1.765625 C 2.601562 -1.585938 2.65625 -1.378906 2.65625 -1.140625 Z M 1.4375 -1.765625 C 1.3125 -1.765625 1.207031 -1.738281 1.125 -1.6875 C 1.050781 -1.632812 0.992188 -1.554688 0.953125 -1.453125 L 1.890625 -1.453125 C 1.859375 -1.554688 1.804688 -1.632812 1.734375 -1.6875 C 1.660156 -1.738281 1.5625 -1.765625 1.4375 -1.765625 Z M 1.4375 -1.765625 "/></g></g></g><g fill="#4c5270" fill-opacity="1"><g transform="translate(11.617761, 28.923482)"><g><path d="M 1.4375 0.046875 C 1.1875 0.046875 0.96875 -0.00390625 0.78125 -0.109375 C 0.59375 -0.210938 0.441406 -0.351562 0.328125 -0.53125 C 0.222656 -0.707031 0.171875 -0.910156 0.171875 -1.140625 C 0.171875 -1.367188 0.222656 -1.570312 0.328125 -1.75 C 0.441406 -1.925781 0.59375 -2.0625 0.78125 -2.15625 C 0.96875 -2.257812 1.1875 -2.3125 1.4375 -2.3125 C 1.78125 -2.3125 2.0625 -2.222656 2.28125 -2.046875 C 2.5 -1.867188 2.632812 -1.640625 2.6875 -1.359375 L 1.9375 -1.359375 C 1.894531 -1.453125 1.832031 -1.523438 1.75 -1.578125 C 1.664062 -1.640625 1.5625 -1.671875 1.4375 -1.671875 C 1.28125 -1.671875 1.148438 -1.617188 1.046875 -1.515625 C 0.953125 -1.421875 0.90625 -1.296875 0.90625 -1.140625 C 0.90625 -0.984375 0.953125 -0.851562 1.046875 -0.75 C 1.148438 -0.65625 1.28125 -0.601562 1.4375 -0.59375 C 1.5625 -0.601562 1.664062 -0.632812 1.75 -0.6875 C 1.832031 -0.75 1.894531 -0.828125 1.9375 -0.921875 L 2.6875 -0.921875 C 2.632812 -0.640625 2.5 -0.40625 2.28125 -0.21875 C 2.0625 -0.0390625 1.78125 0.046875 1.4375 0.046875 Z M 1.4375 0.046875 "/></g></g></g><g fill="#4c5270" fill-opacity="1"><g transform="translate(14.34148, 28.923482)"><g><path d="M 2.421875 0 L 2.21875 -0.640625 L 0.9375 -0.640625 L 0.734375 0 L -0.078125 0 L 1.15625 -3.40625 L 2 -3.40625 L 3.21875 0 Z M 1.140625 -1.265625 L 2.015625 -1.265625 L 1.578125 -2.625 Z M 1.140625 -1.265625 "/></g></g></g><g fill="#4c5270" fill-opacity="1"><g transform="translate(17.394317, 28.923482)"><g><path d="M 1.359375 0.046875 C 1.003906 0.046875 0.734375 -0.0351562 0.546875 -0.203125 C 0.367188 -0.367188 0.28125 -0.59375 0.28125 -0.875 L 0.28125 -2.28125 L 1.015625 -2.28125 L 1.015625 -0.96875 C 1.015625 -0.863281 1.046875 -0.773438 1.109375 -0.703125 C 1.171875 -0.628906 1.253906 -0.59375 1.359375 -0.59375 C 1.453125 -0.59375 1.53125 -0.628906 1.59375 -0.703125 C 1.664062 -0.773438 1.703125 -0.863281 1.703125 -0.96875 L 1.703125 -2.28125 L 2.421875 -2.28125 L 2.421875 -0.875 C 2.421875 -0.59375 2.328125 -0.367188 2.140625 -0.203125 C 1.960938 -0.0351562 1.703125 0.046875 1.359375 0.046875 Z M 1.359375 0.046875 "/></g></g></g><g fill="#4c5270" fill-opacity="1"><g transform="translate(20.010222, 28.923482)"><g><path d="M 1.4375 0.046875 C 1.1875 0.046875 0.96875 -0.00390625 0.78125 -0.109375 C 0.59375 -0.210938 0.441406 -0.351562 0.328125 -0.53125 C 0.222656 -0.707031 0.171875 -0.910156 0.171875 -1.140625 C 0.171875 -1.367188 0.222656 -1.570312 0.328125 -1.75 C 0.441406 -1.925781 0.59375 -2.0625 0.78125 -2.15625 C 0.96875 -2.257812 1.1875 -2.3125 1.4375 -2.3125 C 1.78125 -2.3125 2.0625 -2.222656 2.28125 -2.046875 C 2.5 -1.867188 2.632812 -1.640625 2.6875 -1.359375 L 1.9375 -1.359375 C 1.894531 -1.453125 1.832031 -1.523438 1.75 -1.578125 C 1.664062 -1.640625 1.5625 -1.671875 1.4375 -1.671875 C 1.28125 -1.671875 1.148438 -1.617188 1.046875 -1.515625 C 0.953125 -1.421875 0.90625 -1.296875 0.90625 -1.140625 C 0.90625 -0.984375 0.953125 -0.851562 1.046875 -0.75 C 1.148438 -0.65625 1.28125 -0.601562 1.4375 -0.59375 C 1.5625 -0.601562 1.664062 -0.632812 1.75 -0.6875 C 1.832031 -0.75 1.894531 -0.828125 1.9375 -0.921875 L 2.6875 -0.921875 C 2.632812 -0.640625 2.5 -0.40625 2.28125 -0.21875 C 2.0625 -0.0390625 1.78125 0.046875 1.4375 0.046875 Z M 1.4375 0.046875 "/></g></g></g><g fill="#4c5270" fill-opacity="1"><g transform="translate(22.733941, 28.923482)"><g><path d="M 1.703125 -1.703125 L 1.171875 -1.703125 L 1.171875 -0.890625 C 1.171875 -0.796875 1.191406 -0.722656 1.234375 -0.671875 C 1.285156 -0.617188 1.347656 -0.59375 1.421875 -0.59375 L 1.703125 -0.59375 L 1.703125 -0.03125 C 1.671875 -0.0078125 1.617188 0.00390625 1.546875 0.015625 C 1.484375 0.0351562 1.410156 0.046875 1.328125 0.046875 C 1.171875 0.046875 1.023438 0.0078125 0.890625 -0.0625 C 0.753906 -0.144531 0.644531 -0.25 0.5625 -0.375 C 0.476562 -0.507812 0.4375 -0.65625 0.4375 -0.8125 L 0.4375 -1.703125 L 0.0625 -1.703125 L 0.0625 -2.28125 L 0.4375 -2.28125 L 0.4375 -3.15625 L 1.171875 -3.15625 L 1.171875 -2.28125 L 1.703125 -2.28125 Z M 1.703125 -1.703125 "/></g></g></g><g fill="#4c5270" fill-opacity="1"><g transform="translate(24.458965, 28.923482)"><g><path d="M 0.703125 -2.65625 C 0.597656 -2.65625 0.503906 -2.691406 0.421875 -2.765625 C 0.347656 -2.847656 0.3125 -2.941406 0.3125 -3.046875 C 0.3125 -3.160156 0.347656 -3.253906 0.421875 -3.328125 C 0.503906 -3.410156 0.597656 -3.453125 0.703125 -3.453125 C 0.816406 -3.453125 0.910156 -3.410156 0.984375 -3.328125 C 1.066406 -3.253906 1.109375 -3.160156 1.109375 -3.046875 C 1.109375 -2.941406 1.066406 -2.847656 0.984375 -2.765625 C 0.910156 -2.691406 0.816406 -2.65625 0.703125 -2.65625 Z M 0.34375 0 L 0.34375 -2.28125 L 1.0625 -2.28125 L 1.0625 0 Z M 0.34375 0 "/></g></g></g><g fill="#4c5270" fill-opacity="1"><g transform="translate(25.78678, 28.923482)"><g><path d="M 1.4375 0.046875 C 1.1875 0.046875 0.96875 -0.00390625 0.78125 -0.109375 C 0.59375 -0.210938 0.441406 -0.351562 0.328125 -0.53125 C 0.222656 -0.707031 0.171875 -0.910156 0.171875 -1.140625 C 0.171875 -1.367188 0.222656 -1.570312 0.328125 -1.75 C 0.441406 -1.925781 0.59375 -2.0625 0.78125 -2.15625 C 0.96875 -2.257812 1.1875 -2.3125 1.4375 -2.3125 C 1.695312 -2.3125 1.921875 -2.257812 2.109375 -2.15625 C 2.296875 -2.0625 2.441406 -1.925781 2.546875 -1.75 C 2.648438 -1.570312 2.703125 -1.367188 2.703125 -1.140625 C 2.703125 -0.910156 2.648438 -0.707031 2.546875 -0.53125 C 2.441406 -0.351562 2.296875 -0.210938 2.109375 -0.109375 C 1.921875 -0.00390625 1.695312 0.046875 1.4375 0.046875 Z M 1.4375 -0.59375 C 1.59375 -0.601562 1.722656 -0.65625 1.828125 -0.75 C 1.929688 -0.851562 1.984375 -0.984375 1.984375 -1.140625 C 1.984375 -1.296875 1.929688 -1.421875 1.828125 -1.515625 C 1.722656 -1.617188 1.59375 -1.671875 1.4375 -1.671875 C 1.28125 -1.671875 1.148438 -1.617188 1.046875 -1.515625 C 0.953125 -1.421875 0.90625 -1.296875 0.90625 -1.140625 C 0.90625 -0.984375 0.953125 -0.851562 1.046875 -0.75 C 1.148438 -0.65625 1.28125 -0.601562 1.4375 -0.59375 Z M 1.4375 -0.59375 "/></g></g></g><g fill="#4c5270" fill-opacity="1"><g transform="translate(28.578594, 28.923482)"><g><path d="M 1.703125 -2.3125 C 1.859375 -2.3125 1.992188 -2.269531 2.109375 -2.1875 C 2.234375 -2.113281 2.332031 -2.007812 2.40625 -1.875 C 2.488281 -1.75 2.53125 -1.601562 2.53125 -1.4375 L 2.53125 0 L 1.796875 0 L 1.796875 -1.3125 C 1.796875 -1.414062 1.765625 -1.5 1.703125 -1.5625 C 1.640625 -1.632812 1.550781 -1.671875 1.4375 -1.671875 C 1.332031 -1.671875 1.242188 -1.632812 1.171875 -1.5625 C 1.097656 -1.5 1.0625 -1.414062 1.0625 -1.3125 L 1.0625 0 L 0.328125 0 L 0.328125 -2.28125 L 1.0625 -2.28125 L 1.0625 -2 C 1.144531 -2.09375 1.238281 -2.164062 1.34375 -2.21875 C 1.457031 -2.28125 1.578125 -2.3125 1.703125 -2.3125 Z M 1.703125 -2.3125 "/></g></g></g></svg>