<svg xmlns="http://www.w3.org/2000/svg" xmlns:xlink="http://www.w3.org/1999/xlink" width="432" zoomAndPan="magnify" viewBox="0 0 324 113.249998" height="151" preserveAspectRatio="xMidYMid meet" version="1.0"><defs><g/><clipPath id="c81c447220"><path d="M 175.894531 39.625 L 219.105469 39.625 L 219.105469 79.113281 L 175.894531 79.113281 Z M 175.894531 39.625 " clip-rule="nonzero"/></clipPath></defs><g fill="#000000" fill-opacity="1"><g transform="translate(56.010862, 77.789488)"><g><path d="M 11.703125 0.5625 C 9.285156 0.5625 7.367188 0.160156 5.953125 -0.640625 C 4.546875 -1.453125 3.539062 -2.453125 2.9375 -3.640625 C 2.332031 -4.828125 2.03125 -5.96875 2.03125 -7.0625 C 2.03125 -8.300781 2.347656 -9.257812 2.984375 -9.9375 C 3.628906 -10.625 4.460938 -10.96875 5.484375 -10.96875 C 5.484375 -7.570312 6.019531 -4.894531 7.09375 -2.9375 C 8.164062 -0.976562 9.984375 0 12.546875 0 C 14.578125 0 16.148438 -0.664062 17.265625 -2 C 18.378906 -3.34375 18.9375 -5.351562 18.9375 -8.03125 C 18.9375 -10.019531 18.613281 -11.617188 17.96875 -12.828125 C 17.332031 -14.035156 16.421875 -15.070312 15.234375 -15.9375 C 14.046875 -16.800781 12.582031 -17.722656 10.84375 -18.703125 C 8.132812 -20.253906 6.140625 -21.914062 4.859375 -23.6875 C 3.578125 -25.457031 2.9375 -27.660156 2.9375 -30.296875 C 2.9375 -33.609375 3.847656 -36.207031 5.671875 -38.09375 C 7.503906 -39.976562 9.96875 -40.921875 13.0625 -40.921875 C 14.976562 -40.921875 16.566406 -40.585938 17.828125 -39.921875 C 19.085938 -39.265625 20.035156 -38.414062 20.671875 -37.375 C 21.316406 -36.34375 21.640625 -35.300781 21.640625 -34.25 C 21.640625 -33.269531 21.347656 -32.492188 20.765625 -31.921875 C 20.179688 -31.359375 19.234375 -31.078125 17.921875 -31.078125 C 17.921875 -37.265625 16.09375 -40.359375 12.4375 -40.359375 C 10.738281 -40.359375 9.34375 -39.707031 8.25 -38.40625 C 7.15625 -37.101562 6.609375 -35.171875 6.609375 -32.609375 C 6.609375 -30.765625 6.910156 -29.273438 7.515625 -28.140625 C 8.117188 -27.015625 8.992188 -26.035156 10.140625 -25.203125 C 11.296875 -24.378906 12.679688 -23.492188 14.296875 -22.546875 C 15.953125 -21.566406 17.410156 -20.585938 18.671875 -19.609375 C 19.941406 -18.628906 20.921875 -17.441406 21.609375 -16.046875 C 22.304688 -14.648438 22.65625 -12.863281 22.65625 -10.6875 C 22.65625 -7.21875 21.722656 -4.472656 19.859375 -2.453125 C 17.992188 -0.441406 15.273438 0.5625 11.703125 0.5625 Z M 11.703125 0.5625 "/></g></g></g><g fill="#000000" fill-opacity="1"><g transform="translate(75.278704, 77.789488)"><g><path d="M 13.0625 0.5625 C 9.707031 0.5625 7.085938 -0.71875 5.203125 -3.28125 C 3.316406 -5.84375 2.375 -9.796875 2.375 -15.140625 C 2.375 -25.578125 5.972656 -30.796875 13.171875 -30.796875 C 16.640625 -30.796875 19.273438 -29.492188 21.078125 -26.890625 C 22.890625 -24.296875 23.796875 -20.378906 23.796875 -15.140625 C 23.796875 -9.753906 22.890625 -5.789062 21.078125 -3.25 C 19.273438 -0.707031 16.601562 0.5625 13.0625 0.5625 Z M 13.109375 0 C 15.253906 0 16.75 -1.144531 17.59375 -3.4375 C 18.445312 -5.738281 18.875 -9.640625 18.875 -15.140625 C 18.875 -18.835938 18.691406 -21.796875 18.328125 -24.015625 C 17.972656 -26.242188 17.375 -27.835938 16.53125 -28.796875 C 15.6875 -29.753906 14.53125 -30.234375 13.0625 -30.234375 C 11.664062 -30.234375 10.539062 -29.753906 9.6875 -28.796875 C 8.84375 -27.835938 8.238281 -26.242188 7.875 -24.015625 C 7.519531 -21.796875 7.34375 -18.835938 7.34375 -15.140625 C 7.34375 -9.640625 7.796875 -5.738281 8.703125 -3.4375 C 9.609375 -1.144531 11.078125 0 13.109375 0 Z M 13.109375 0 "/></g></g></g><g fill="#000000" fill-opacity="1"><g transform="translate(96.128704, 77.789488)"><g><path d="M 12.609375 0.5625 C 10.609375 0.5625 8.832031 0.0820312 7.28125 -0.875 C 5.738281 -1.832031 4.535156 -3.453125 3.671875 -5.734375 C 2.804688 -8.015625 2.375 -11.148438 2.375 -15.140625 C 2.375 -19.140625 2.804688 -22.273438 3.671875 -24.546875 C 4.535156 -26.828125 5.738281 -28.4375 7.28125 -29.375 C 8.832031 -30.320312 10.644531 -30.796875 12.71875 -30.796875 C 15.46875 -30.796875 17.484375 -30.203125 18.765625 -29.015625 C 20.046875 -27.828125 20.6875 -26.484375 20.6875 -24.984375 C 20.6875 -24.003906 20.382812 -23.203125 19.78125 -22.578125 C 19.175781 -21.953125 18.066406 -21.640625 16.453125 -21.640625 C 16.453125 -24.878906 16.175781 -27.117188 15.625 -28.359375 C 15.082031 -29.609375 14.09375 -30.234375 12.65625 -30.234375 C 11.488281 -30.234375 10.507812 -29.804688 9.71875 -28.953125 C 8.925781 -28.109375 8.320312 -26.59375 7.90625 -24.40625 C 7.5 -22.226562 7.296875 -19.160156 7.296875 -15.203125 C 7.296875 -11.429688 7.519531 -8.441406 7.96875 -6.234375 C 8.414062 -4.035156 9.101562 -2.457031 10.03125 -1.5 C 10.957031 -0.539062 12.132812 -0.0625 13.5625 -0.0625 C 16.84375 -0.0625 18.765625 -2.472656 19.328125 -7.296875 C 19.859375 -7.140625 20.222656 -6.878906 20.421875 -6.515625 C 20.628906 -6.160156 20.734375 -5.722656 20.734375 -5.203125 C 20.734375 -4.410156 20.476562 -3.570312 19.96875 -2.6875 C 19.46875 -1.800781 18.613281 -1.035156 17.40625 -0.390625 C 16.195312 0.242188 14.597656 0.5625 12.609375 0.5625 Z M 12.609375 0.5625 "/></g></g></g><g fill="#000000" fill-opacity="1"><g transform="translate(113.192827, 77.789488)"><g><path d="M 7.296875 -36.390625 C 6.578125 -36.390625 5.972656 -36.625 5.484375 -37.09375 C 4.992188 -37.570312 4.75 -38.359375 4.75 -39.453125 C 4.75 -40.578125 4.992188 -41.363281 5.484375 -41.8125 C 5.972656 -42.269531 6.578125 -42.5 7.296875 -42.5 C 8.003906 -42.5 8.613281 -42.269531 9.125 -41.8125 C 9.632812 -41.363281 9.890625 -40.578125 9.890625 -39.453125 C 9.890625 -38.359375 9.632812 -37.570312 9.125 -37.09375 C 8.613281 -36.625 8.003906 -36.390625 7.296875 -36.390625 Z M 0.953125 0 L 0.953125 -0.5625 L 1.703125 -0.5625 C 3.054688 -0.5625 3.96875 -0.804688 4.4375 -1.296875 C 4.90625 -1.785156 5.140625 -2.953125 5.140625 -4.796875 L 5.140625 -25.546875 C 5.140625 -27.316406 4.910156 -28.457031 4.453125 -28.96875 C 4.003906 -29.476562 3.140625 -29.734375 1.859375 -29.734375 L 1.296875 -29.734375 L 1.296875 -30.296875 L 10 -30.296875 L 10 -4.75 C 10 -2.9375 10.234375 -1.785156 10.703125 -1.296875 C 11.179688 -0.804688 12.078125 -0.5625 13.390625 -0.5625 L 14.015625 -0.5625 L 14.015625 0 Z M 0.953125 0 "/></g></g></g><g fill="#000000" fill-opacity="1"><g transform="translate(122.572164, 77.789488)"><g><path d="M 13.109375 0.5625 C 9.609375 0.5625 6.941406 -0.78125 5.109375 -3.46875 C 3.285156 -6.164062 2.375 -9.960938 2.375 -14.859375 C 2.375 -20.171875 3.269531 -24.15625 5.0625 -26.8125 C 6.851562 -29.46875 9.367188 -30.796875 12.609375 -30.796875 C 15.691406 -30.796875 18.0625 -29.570312 19.71875 -27.125 C 21.375 -24.675781 22.203125 -21.25 22.203125 -16.84375 L 22.203125 -15.828125 L 7.234375 -15.828125 C 7.234375 -10.140625 7.816406 -6.097656 8.984375 -3.703125 C 10.148438 -1.304688 11.863281 -0.109375 14.125 -0.109375 C 15.78125 -0.109375 17.097656 -0.65625 18.078125 -1.75 C 19.054688 -2.84375 19.695312 -4.578125 20 -6.953125 C 20.90625 -6.722656 21.359375 -6.140625 21.359375 -5.203125 C 21.359375 -4.367188 21.066406 -3.507812 20.484375 -2.625 C 19.898438 -1.738281 18.992188 -0.984375 17.765625 -0.359375 C 16.546875 0.253906 14.992188 0.5625 13.109375 0.5625 Z M 7.234375 -16.390625 L 17.40625 -16.390625 C 17.363281 -21.285156 16.992188 -24.816406 16.296875 -26.984375 C 15.609375 -29.148438 14.378906 -30.234375 12.609375 -30.234375 C 10.835938 -30.234375 9.515625 -29.160156 8.640625 -27.015625 C 7.773438 -24.867188 7.304688 -21.328125 7.234375 -16.390625 Z M 7.234375 -16.390625 "/></g></g></g><g fill="#000000" fill-opacity="1"><g transform="translate(141.613982, 77.789488)"><g><path d="M 10.734375 0.5625 C 8.628906 0.5625 7.03125 -0.0664062 5.9375 -1.328125 C 4.84375 -2.585938 4.296875 -4.859375 4.296875 -8.140625 L 4.296875 -29.734375 L 0.90625 -29.734375 L 0.90625 -30.296875 C 2.113281 -30.328125 3.140625 -30.460938 3.984375 -30.703125 C 4.828125 -30.953125 5.535156 -31.285156 6.109375 -31.703125 C 6.859375 -32.304688 7.421875 -33.066406 7.796875 -33.984375 C 8.171875 -34.910156 8.453125 -35.976562 8.640625 -37.1875 L 9.21875 -37.1875 L 9.21875 -30.296875 L 14.984375 -30.296875 L 14.984375 -29.734375 L 9.21875 -29.734375 L 9.21875 -6.5 C 9.21875 -4.195312 9.488281 -2.601562 10.03125 -1.71875 C 10.570312 -0.832031 11.429688 -0.390625 12.609375 -0.390625 C 13.015625 -0.390625 13.4375 -0.414062 13.875 -0.46875 C 14.3125 -0.53125 14.828125 -0.65625 15.421875 -0.84375 L 15.421875 -0.28125 C 14.929688 -0.09375 14.28125 0.09375 13.46875 0.28125 C 12.664062 0.46875 11.753906 0.5625 10.734375 0.5625 Z M 10.734375 0.5625 "/></g></g></g><g fill="#000000" fill-opacity="1"><g transform="translate(152.688495, 77.789488)"><g><path d="M 1.703125 13.21875 L 1.703125 12.65625 C 3.847656 12.65625 5.613281 12.378906 7 11.828125 C 8.394531 11.285156 9.570312 10.210938 10.53125 8.609375 C 11.5 7.015625 12.453125 4.671875 13.390625 1.578125 L 3.453125 -26.5 C 3.109375 -27.445312 2.820312 -28.15625 2.59375 -28.625 C 2.375 -29.09375 2.113281 -29.394531 1.8125 -29.53125 C 1.507812 -29.664062 1.054688 -29.734375 0.453125 -29.734375 L 0.171875 -29.734375 L 0.171875 -30.296875 L 11.359375 -30.296875 L 11.359375 -29.734375 L 11.015625 -29.734375 C 9.847656 -29.734375 9.046875 -29.617188 8.609375 -29.390625 C 8.179688 -29.160156 7.96875 -28.800781 7.96875 -28.3125 C 7.96875 -27.9375 8.050781 -27.445312 8.21875 -26.84375 C 8.394531 -26.238281 8.613281 -25.539062 8.875 -24.75 L 12.71875 -13.0625 C 13.050781 -11.96875 13.320312 -11.109375 13.53125 -10.484375 C 13.738281 -9.859375 13.925781 -9.3125 14.09375 -8.84375 C 14.269531 -8.375 14.441406 -7.828125 14.609375 -7.203125 C 14.773438 -6.578125 15.007812 -5.738281 15.3125 -4.6875 C 15.582031 -5.632812 15.882812 -6.785156 16.21875 -8.140625 C 16.5625 -9.492188 16.9375 -10.867188 17.34375 -12.265625 L 20.90625 -24.984375 C 21.175781 -25.960938 21.359375 -26.710938 21.453125 -27.234375 C 21.546875 -27.765625 21.59375 -28.160156 21.59375 -28.421875 C 21.59375 -28.835938 21.421875 -29.160156 21.078125 -29.390625 C 20.742188 -29.617188 20.046875 -29.734375 18.984375 -29.734375 L 17.515625 -29.734375 L 17.515625 -30.296875 L 25.4375 -30.296875 L 25.4375 -29.734375 L 25.15625 -29.734375 C 24.4375 -29.734375 23.890625 -29.628906 23.515625 -29.421875 C 23.140625 -29.210938 22.816406 -28.816406 22.546875 -28.234375 C 22.285156 -27.648438 21.984375 -26.753906 21.640625 -25.546875 L 14.015625 1.703125 C 13.148438 4.828125 12.195312 7.21875 11.15625 8.875 C 10.125 10.53125 8.910156 11.664062 7.515625 12.28125 C 6.117188 12.90625 4.460938 13.21875 2.546875 13.21875 Z M 1.703125 13.21875 "/></g></g></g><g fill="#000000" fill-opacity="1"><g transform="translate(227.291157, 78.009373)"><g><path d="M 1.578125 0 L 1.578125 -0.5625 L 2.765625 -0.5625 C 3.929688 -0.5625 4.734375 -0.816406 5.171875 -1.328125 C 5.609375 -1.835938 5.828125 -3.050781 5.828125 -4.96875 L 5.828125 -35.375 C 5.828125 -37.300781 5.609375 -38.515625 5.171875 -39.015625 C 4.734375 -39.523438 3.929688 -39.78125 2.765625 -39.78125 L 1.578125 -39.78125 L 1.578125 -40.359375 L 15.203125 -40.359375 L 15.203125 -39.78125 L 13.90625 -39.78125 C 12.738281 -39.78125 11.9375 -39.535156 11.5 -39.046875 C 11.0625 -38.554688 10.84375 -37.367188 10.84375 -35.484375 L 10.84375 -0.5625 L 19.390625 -0.5625 C 21.679688 -0.5625 23.269531 -1.003906 24.15625 -1.890625 C 25.039062 -2.773438 25.539062 -4.367188 25.65625 -6.671875 L 25.890625 -12.03125 L 26.453125 -12.03125 L 26.109375 0 Z M 1.578125 0 "/></g></g></g><g fill="#000000" fill-opacity="1"><g transform="translate(250.118856, 78.009373)"><g><path d="M 13.0625 0.5625 C 9.707031 0.5625 7.085938 -0.71875 5.203125 -3.28125 C 3.316406 -5.84375 2.375 -9.796875 2.375 -15.140625 C 2.375 -25.578125 5.972656 -30.796875 13.171875 -30.796875 C 16.640625 -30.796875 19.273438 -29.492188 21.078125 -26.890625 C 22.890625 -24.296875 23.796875 -20.378906 23.796875 -15.140625 C 23.796875 -9.753906 22.890625 -5.789062 21.078125 -3.25 C 19.273438 -0.707031 16.601562 0.5625 13.0625 0.5625 Z M 13.109375 0 C 15.253906 0 16.75 -1.144531 17.59375 -3.4375 C 18.445312 -5.738281 18.875 -9.640625 18.875 -15.140625 C 18.875 -18.835938 18.691406 -21.796875 18.328125 -24.015625 C 17.972656 -26.242188 17.375 -27.835938 16.53125 -28.796875 C 15.6875 -29.753906 14.53125 -30.234375 13.0625 -30.234375 C 11.664062 -30.234375 10.539062 -29.753906 9.6875 -28.796875 C 8.84375 -27.835938 8.238281 -26.242188 7.875 -24.015625 C 7.519531 -21.796875 7.34375 -18.835938 7.34375 -15.140625 C 7.34375 -9.640625 7.796875 -5.738281 8.703125 -3.4375 C 9.609375 -1.144531 11.078125 0 13.109375 0 Z M 13.109375 0 "/></g></g></g><g fill="#000000" fill-opacity="1"><g transform="translate(270.968855, 78.009373)"><g><path d="M 10.734375 13.5 C 7.535156 13.5 5.078125 12.847656 3.359375 11.546875 C 1.648438 10.253906 0.796875 8.398438 0.796875 5.984375 C 0.796875 2.140625 3.164062 -0.226562 7.90625 -1.125 C 6.40625 -1.425781 5.320312 -2.039062 4.65625 -2.96875 C 4 -3.894531 3.671875 -4.898438 3.671875 -5.984375 C 3.671875 -7.046875 3.972656 -8.054688 4.578125 -9.015625 C 5.179688 -9.972656 6.179688 -10.847656 7.578125 -11.640625 C 6.109375 -12.242188 4.910156 -13.304688 3.984375 -14.828125 C 3.054688 -16.359375 2.59375 -18.195312 2.59375 -20.34375 C 2.59375 -23.882812 3.335938 -26.507812 4.828125 -28.21875 C 6.316406 -29.9375 8.53125 -30.796875 11.46875 -30.796875 C 13.8125 -30.796875 15.71875 -30.0625 17.1875 -28.59375 C 17.5625 -29.425781 18.046875 -30.21875 18.640625 -30.96875 C 19.242188 -31.71875 20.09375 -32.09375 21.1875 -32.09375 C 22.0625 -32.09375 22.722656 -31.800781 23.171875 -31.21875 C 23.617188 -30.632812 23.84375 -29.945312 23.84375 -29.15625 C 23.84375 -28.40625 23.644531 -27.773438 23.25 -27.265625 C 22.851562 -26.753906 22.242188 -26.5 21.421875 -26.5 C 21.421875 -27.707031 21.285156 -28.582031 21.015625 -29.125 C 20.753906 -29.675781 20.320312 -29.953125 19.71875 -29.953125 C 18.894531 -29.953125 18.179688 -29.367188 17.578125 -28.203125 C 18.328125 -27.335938 18.914062 -26.300781 19.34375 -25.09375 C 19.78125 -23.882812 20 -22.394531 20 -20.625 C 20 -17.644531 19.300781 -15.28125 17.90625 -13.53125 C 16.519531 -11.78125 14.359375 -10.90625 11.421875 -10.90625 C 10.890625 -10.90625 10.320312 -10.941406 9.71875 -11.015625 C 9.113281 -11.097656 8.566406 -11.234375 8.078125 -11.421875 C 7.023438 -10.359375 6.5 -9.265625 6.5 -8.140625 C 6.5 -7.160156 6.816406 -6.382812 7.453125 -5.8125 C 8.097656 -5.25 8.96875 -4.96875 10.0625 -4.96875 L 14.359375 -4.96875 C 17.222656 -4.96875 19.296875 -4.222656 20.578125 -2.734375 C 21.859375 -1.253906 22.5 0.710938 22.5 3.171875 C 22.5 6.328125 21.515625 8.835938 19.546875 10.703125 C 17.585938 12.566406 14.648438 13.5 10.734375 13.5 Z M 11.296875 -11.46875 C 12.804688 -11.46875 13.910156 -12.132812 14.609375 -13.46875 C 15.304688 -14.8125 15.65625 -17.195312 15.65625 -20.625 C 15.65625 -23.15625 15.492188 -25.113281 15.171875 -26.5 C 14.847656 -27.894531 14.363281 -28.863281 13.71875 -29.40625 C 13.082031 -29.957031 12.257812 -30.234375 11.25 -30.234375 C 10.300781 -30.234375 9.503906 -29.941406 8.859375 -29.359375 C 8.222656 -28.773438 7.742188 -27.785156 7.421875 -26.390625 C 7.109375 -24.992188 6.953125 -23.054688 6.953125 -20.578125 C 6.953125 -17.179688 7.300781 -14.8125 8 -13.46875 C 8.695312 -12.132812 9.796875 -11.46875 11.296875 -11.46875 Z M 11.296875 12.9375 C 14.015625 12.9375 15.984375 12.226562 17.203125 10.8125 C 18.429688 9.40625 19.046875 7.421875 19.046875 4.859375 C 19.046875 3.015625 18.648438 1.59375 17.859375 0.59375 C 17.066406 -0.40625 15.578125 -0.90625 13.390625 -0.90625 L 9.890625 -0.90625 C 8.347656 -0.90625 7.046875 -0.320312 5.984375 0.84375 C 4.929688 2.007812 4.40625 3.6875 4.40625 5.875 C 4.40625 8.289062 5.023438 10.070312 6.265625 11.21875 C 7.515625 12.363281 9.191406 12.9375 11.296875 12.9375 Z M 11.296875 12.9375 "/></g></g></g><g clip-path="url(#c81c447220)"><path fill="#3c3c3b" d="M 204.992188 46.378906 L 203.105469 45.738281 L 202.816406 46.546875 L 202.804688 45.261719 Z M 200.898438 45.859375 L 202.171875 45.234375 L 202.171875 46.507812 L 205.3125 48.097656 L 205.324219 46.132812 L 204.226562 45.542969 L 204.226562 39.933594 C 204.226562 39.761719 204.085938 39.625 203.917969 39.625 C 203.746094 39.625 203.609375 39.761719 203.609375 39.933594 L 203.609375 45.210938 L 202.507812 44.621094 L 200.445312 45.632812 Z M 188.410156 76.617188 L 188.410156 75.871094 L 182.445312 76.925781 L 182.445312 76.398438 L 188.304688 75.359375 L 188.460938 74.378906 L 188.621094 75.363281 L 191.867188 75.78125 L 191.867188 74.371094 L 188.4375 73.929688 L 188.410156 73.933594 L 183.074219 74.75 L 188.410156 73.570312 L 188.410156 73.199219 L 182.445312 74.398438 L 182.445312 73.871094 L 188.300781 72.691406 L 188.460938 71.675781 L 188.625 72.695312 L 191.867188 73.1875 L 191.867188 71.777344 L 188.4375 71.253906 L 188.410156 71.261719 L 183.003906 72.25 L 188.410156 70.949219 L 188.410156 70.527344 L 182.445312 71.953125 L 182.445312 71.421875 L 188.300781 70.027344 L 188.460938 69 L 188.625 70.027344 L 191.867188 70.609375 L 191.867188 69.199219 L 188.4375 68.582031 L 188.410156 68.589844 L 182.957031 69.832031 L 188.410156 68.253906 L 188.410156 67.851562 L 182.445312 69.523438 L 182.445312 68.996094 L 188.289062 67.355469 L 188.460938 66.273438 L 188.636719 67.355469 L 191.867188 68.011719 L 191.867188 66.601562 L 188.4375 65.902344 L 188.410156 65.910156 L 182.8125 67.390625 L 188.410156 65.558594 L 188.410156 65 L 182.019531 66.980469 L 182.019531 77.632812 C 183.539062 77.324219 185.070312 77.0625 186.605469 76.847656 C 187.207031 76.761719 187.808594 76.6875 188.410156 76.617188 Z M 188.949219 65.355469 L 191.492188 65.675781 L 188.949219 65.113281 Z M 189.589844 64.664062 L 191.328125 65.085938 L 192.835938 65.449219 L 192.835938 65.96875 L 195.855469 65.121094 L 195.855469 64.285156 L 196.457031 64.109375 L 196.457031 65.480469 L 195.039062 65.878906 L 195.039062 67.082031 L 192.835938 67.648438 L 192.835938 68.957031 L 195.855469 68.222656 L 195.855469 67.398438 L 196.457031 67.246094 L 196.457031 68.605469 L 195.039062 68.949219 L 195.039062 70.144531 L 192.835938 70.613281 L 192.835938 71.914062 L 195.855469 71.308594 L 195.855469 70.5 L 196.457031 70.371094 L 196.457031 71.71875 L 195.039062 72 L 195.039062 73.226562 L 192.835938 73.617188 L 192.835938 74.90625 L 195.855469 74.414062 L 195.855469 73.613281 L 196.457031 73.503906 L 196.457031 74.84375 L 195.039062 75.074219 L 195.039062 76.125 C 195.820312 76.097656 196.601562 76.085938 197.386719 76.082031 L 197.386719 45.796875 L 189.589844 49.832031 Z M 199.027344 46.6875 L 207.03125 50.214844 L 199.027344 46.28125 Z M 207.066406 51.886719 L 199.050781 48.03125 L 199.050781 49.488281 L 207.066406 53.257812 Z M 205.957031 59.339844 L 205.957031 59.660156 L 212.546875 61.703125 Z M 213.25 63.144531 L 205.371094 60.476562 L 202.675781 61.195312 L 202.675781 62.957031 L 205.226562 62.277344 L 205.371094 61.074219 L 205.515625 62.285156 L 213.25 64.820312 Z M 203.714844 76.324219 C 204.265625 76.367188 204.816406 76.417969 205.363281 76.472656 L 205.363281 75.78125 L 203.714844 76.015625 Z M 199.050781 73.054688 L 199.050781 74.390625 L 201.765625 74.832031 L 201.765625 73.523438 Z M 199.050781 69.917969 L 199.050781 71.265625 L 201.765625 71.800781 L 201.765625 70.484375 Z M 199.050781 66.8125 L 199.050781 68.167969 L 201.765625 68.804688 L 201.765625 67.476562 Z M 199.050781 63.683594 L 199.050781 65.054688 L 201.765625 65.792969 L 201.765625 64.453125 Z M 199.050781 60.570312 L 199.050781 61.953125 L 201.765625 62.796875 L 201.765625 61.441406 Z M 212.28125 67.945312 L 205.957031 66.167969 L 205.957031 66.445312 Z M 205.363281 66.710938 L 205.363281 66.003906 L 203.714844 66.417969 L 203.714844 67.0625 Z M 213.25 70.6875 L 213.25 69.015625 L 205.363281 66.953125 L 202.675781 67.546875 L 202.675781 69.3125 L 205.234375 68.753906 L 205.371094 67.632812 L 205.503906 68.753906 Z M 212.28125 70.890625 L 205.957031 69.414062 L 205.957031 69.707031 Z M 205.363281 69.972656 L 205.363281 69.265625 L 203.714844 69.617188 L 203.714844 70.265625 Z M 213.25 73.667969 L 213.25 71.992188 L 205.371094 70.234375 L 202.675781 70.714844 L 202.675781 72.480469 L 205.226562 72.023438 L 205.371094 70.824219 L 205.511719 72.027344 Z M 212.226562 73.875 L 205.957031 72.640625 L 205.957031 72.917969 Z M 205.363281 73.226562 L 205.363281 72.527344 L 203.714844 72.820312 L 203.714844 73.457031 Z M 205.957031 75.875 L 205.957031 76.226562 L 212.222656 76.832031 Z M 213.25 76.585938 L 213.25 74.914062 L 205.363281 73.480469 L 202.675781 73.867188 L 202.675781 75.632812 L 205.230469 75.273438 L 205.371094 74.101562 L 205.507812 75.269531 Z M 212.375 64.949219 L 205.957031 62.953125 L 205.957031 63.21875 Z M 205.363281 63.449219 L 205.363281 62.769531 L 203.714844 63.207031 L 203.714844 63.863281 Z M 202.675781 64.390625 L 202.675781 66.152344 L 205.230469 65.511719 L 205.371094 64.351562 L 205.507812 65.515625 L 213.25 67.804688 L 213.25 66.132812 L 205.363281 63.710938 Z M 199.050781 57.425781 L 199.050781 58.828125 L 201.765625 59.78125 L 201.765625 59.625 L 203.578125 59.066406 Z M 203.714844 59.636719 L 203.714844 60.652344 L 205.363281 60.214844 L 205.363281 59.128906 Z M 207.066406 56.085938 L 207.066406 54.738281 L 199.050781 51.21875 L 199.050781 52.65625 Z M 199.050781 54.304688 L 199.050781 55.722656 L 207.066406 58.839844 L 207.066406 57.507812 Z M 219.226562 79.175781 C 215.644531 78.476562 212.046875 77.90625 208.433594 77.527344 C 204.820312 77.152344 201.191406 76.96875 197.5625 76.960938 C 193.933594 76.96875 190.304688 77.152344 186.6875 77.53125 C 183.074219 77.90625 179.476562 78.476562 175.894531 79.175781 C 177.753906 78.613281 179.636719 78.136719 181.539062 77.734375 L 181.539062 66.511719 L 188.410156 64.382812 L 188.929688 64.507812 L 188.929688 49.382812 L 197.5625 44.914062 L 207.953125 50.183594 L 207.953125 59.484375 L 214.039062 61.792969 L 214.039062 77.835938 C 215.789062 78.214844 217.519531 78.660156 219.226562 79.175781 Z M 196.457031 51.574219 L 195.855469 51.84375 L 195.855469 52.75 L 190.320312 55.179688 L 190.320312 55.710938 L 196.457031 53.015625 Z M 196.457031 48.4375 L 195.855469 48.734375 L 195.855469 49.660156 L 190.320312 52.316406 L 190.320312 52.847656 L 196.457031 49.902344 Z M 196.457031 54.703125 L 195.855469 54.949219 L 195.855469 55.832031 L 190.320312 58.011719 L 190.320312 58.539062 L 196.457031 56.121094 Z M 196.457031 60.972656 L 195.855469 61.171875 L 195.855469 62.019531 L 190.320312 63.765625 L 190.320312 64.292969 L 196.457031 62.359375 Z M 196.457031 59.246094 L 190.320312 61.457031 L 190.320312 60.929688 L 195.855469 58.933594 L 195.855469 58.066406 L 196.457031 57.84375 L 196.457031 59.246094 " fill-opacity="1" fill-rule="nonzero"/></g></svg>