<svg xmlns="http://www.w3.org/2000/svg" xmlns:xlink="http://www.w3.org/1999/xlink" width="55" zoomAndPan="magnify" viewBox="0 0 41.25 41.250001" height="55" preserveAspectRatio="xMidYMid meet" version="1.0"><defs><g/><clipPath id="cebdf6b739"><path d="M 0 0 L 40.511719 0 L 40.511719 40.511719 L 0 40.511719 Z M 0 0 " clip-rule="nonzero"/></clipPath><clipPath id="5147585033"><path d="M 1.945312 18.234375 L 40.511719 18.234375 L 40.511719 22.75 L 1.945312 22.75 Z M 1.945312 18.234375 " clip-rule="nonzero"/></clipPath><clipPath id="b442b2db74"><path d="M 10 2 L 40 2 L 40 22 L 10 22 Z M 10 2 " clip-rule="nonzero"/></clipPath><clipPath id="fac25ca1e9"><path d="M -5.269531 16.382812 L 25.699219 -4.820312 L 46.453125 25.496094 L 15.484375 46.699219 Z M -5.269531 16.382812 " clip-rule="nonzero"/></clipPath><clipPath id="1a2ec898ab"><path d="M -5.269531 16.382812 L 25.699219 -4.820312 L 46.453125 25.496094 L 15.484375 46.699219 Z M -5.269531 16.382812 " clip-rule="nonzero"/></clipPath><clipPath id="f943af95f3"><path d="M -5.269531 16.382812 L 25.699219 -4.820312 L 46.453125 25.496094 L 15.484375 46.699219 Z M -5.269531 16.382812 " clip-rule="nonzero"/></clipPath><clipPath id="47f721ad23"><path d="M 2 21 L 31 21 L 31 40 L 2 40 Z M 2 21 " clip-rule="nonzero"/></clipPath><clipPath id="3d28fe3580"><path d="M -5.269531 16.382812 L 25.699219 -4.820312 L 46.453125 25.496094 L 15.484375 46.699219 Z M -5.269531 16.382812 " clip-rule="nonzero"/></clipPath><clipPath id="84c3ecd313"><path d="M -5.269531 16.382812 L 25.699219 -4.820312 L 46.453125 25.496094 L 15.484375 46.699219 Z M -5.269531 16.382812 " clip-rule="nonzero"/></clipPath><clipPath id="7ed3c47d7d"><path d="M -5.269531 16.382812 L 25.699219 -4.820312 L 46.453125 25.496094 L 15.484375 46.699219 Z M -5.269531 16.382812 " clip-rule="nonzero"/></clipPath></defs><g clip-path="url(#cebdf6b739)"><path fill="#ffffff" d="M 0 0 L 40.511719 0 L 40.511719 40.511719 L 0 40.511719 Z M 0 0 " fill-opacity="1" fill-rule="nonzero"/><path fill="#ffffff" d="M 0 0 L 40.511719 0 L 40.511719 40.511719 L 0 40.511719 Z M 0 0 " fill-opacity="1" fill-rule="nonzero"/></g><path stroke-linecap="butt" transform="matrix(0.000320608, -0.132154, 0.132154, 0.000320608, 21.124667, 33.558125)" fill="none" stroke-linejoin="miter" d="M -0.00232273 0.505015 L 206.107781 0.507479 " stroke="#000000" stroke-width="1" stroke-opacity="1" stroke-miterlimit="4"/><g fill="#000000" fill-opacity="1"><g transform="translate(5.787731, 28.198922)"><g><path d="M 0.96875 -12.34375 C 0.96875 -13.09375 1.191406 -13.785156 1.640625 -14.421875 C 2.097656 -15.066406 2.757812 -15.582031 3.625 -15.96875 C 4.488281 -16.363281 5.539062 -16.5625 6.78125 -16.5625 C 7.78125 -16.5625 8.644531 -16.488281 9.375 -16.34375 C 10.101562 -16.207031 10.78125 -16.03125 11.40625 -15.8125 L 11.40625 -13.640625 L 11.25 -13.640625 C 11.25 -13.640625 11.203125 -13.726562 11.109375 -13.90625 C 11.023438 -14.09375 10.878906 -14.320312 10.671875 -14.59375 C 10.472656 -14.863281 10.203125 -15.132812 9.859375 -15.40625 C 9.515625 -15.675781 9.085938 -15.898438 8.578125 -16.078125 C 8.078125 -16.265625 7.476562 -16.359375 6.78125 -16.359375 C 5.78125 -16.359375 4.929688 -16.179688 4.234375 -15.828125 C 3.535156 -15.472656 3.003906 -15.019531 2.640625 -14.46875 C 2.285156 -13.914062 2.109375 -13.335938 2.109375 -12.734375 C 2.109375 -12.179688 2.25 -11.707031 2.53125 -11.3125 C 2.820312 -10.925781 3.210938 -10.59375 3.703125 -10.3125 C 4.203125 -10.03125 4.753906 -9.78125 5.359375 -9.5625 C 5.960938 -9.34375 6.585938 -9.125 7.234375 -8.90625 C 7.890625 -8.695312 8.519531 -8.460938 9.125 -8.203125 C 9.726562 -7.953125 10.273438 -7.644531 10.765625 -7.28125 C 11.265625 -6.925781 11.65625 -6.5 11.9375 -6 C 12.226562 -5.5 12.375 -4.890625 12.375 -4.171875 C 12.375 -3.609375 12.234375 -3.054688 11.953125 -2.515625 C 11.671875 -1.984375 11.265625 -1.503906 10.734375 -1.078125 C 10.203125 -0.648438 9.5625 -0.304688 8.8125 -0.046875 C 8.0625 0.203125 7.21875 0.328125 6.28125 0.328125 C 5.570312 0.328125 4.890625 0.222656 4.234375 0.015625 C 3.585938 -0.191406 2.992188 -0.445312 2.453125 -0.75 C 1.910156 -1.0625 1.4375 -1.363281 1.03125 -1.65625 L 1.03125 -3.828125 L 1.203125 -3.828125 C 1.203125 -3.828125 1.285156 -3.695312 1.453125 -3.4375 C 1.617188 -3.175781 1.863281 -2.851562 2.1875 -2.46875 C 2.519531 -2.09375 2.925781 -1.710938 3.40625 -1.328125 C 3.894531 -0.941406 4.457031 -0.617188 5.09375 -0.359375 C 5.726562 -0.0976562 6.425781 0.03125 7.1875 0.03125 C 7.78125 0.03125 8.332031 -0.0625 8.84375 -0.25 C 9.363281 -0.445312 9.816406 -0.710938 10.203125 -1.046875 C 10.585938 -1.390625 10.882812 -1.769531 11.09375 -2.1875 C 11.3125 -2.613281 11.421875 -3.050781 11.421875 -3.5 C 11.421875 -4.113281 11.273438 -4.640625 10.984375 -5.078125 C 10.691406 -5.515625 10.296875 -5.890625 9.796875 -6.203125 C 9.304688 -6.515625 8.75 -6.796875 8.125 -7.046875 C 7.5 -7.296875 6.859375 -7.53125 6.203125 -7.75 C 5.546875 -7.976562 4.90625 -8.222656 4.28125 -8.484375 C 3.65625 -8.742188 3.09375 -9.046875 2.59375 -9.390625 C 2.09375 -9.734375 1.695312 -10.144531 1.40625 -10.625 C 1.113281 -11.101562 0.96875 -11.675781 0.96875 -12.34375 Z M 0.96875 -12.34375 "/></g></g></g><g fill="#000000" fill-opacity="1"><g transform="translate(23.882731, 28.198922)"><g><path d="M 0.484375 -16.234375 L 4.875 -16.234375 L 4.875 -16.078125 C 4.40625 -16.078125 4.066406 -15.9375 3.859375 -15.65625 C 3.648438 -15.375 3.515625 -14.914062 3.453125 -14.28125 C 3.398438 -13.644531 3.375 -12.789062 3.375 -11.71875 L 3.375 -0.15625 L 5.4375 -0.15625 C 5.695312 -0.15625 6.035156 -0.164062 6.453125 -0.1875 C 6.867188 -0.207031 7.320312 -0.242188 7.8125 -0.296875 C 8.300781 -0.347656 8.785156 -0.429688 9.265625 -0.546875 C 9.742188 -0.660156 10.1875 -0.804688 10.59375 -0.984375 C 11 -1.171875 11.320312 -1.398438 11.5625 -1.671875 C 11.8125 -1.953125 11.9375 -2.285156 11.9375 -2.671875 L 12.09375 -2.671875 L 12.09375 0 L 0.484375 0 L 0.484375 -0.15625 C 0.953125 -0.15625 1.289062 -0.296875 1.5 -0.578125 C 1.707031 -0.859375 1.835938 -1.316406 1.890625 -1.953125 C 1.953125 -2.597656 1.984375 -3.453125 1.984375 -4.515625 L 1.984375 -11.71875 C 1.984375 -12.789062 1.953125 -13.644531 1.890625 -14.28125 C 1.835938 -14.914062 1.707031 -15.375 1.5 -15.65625 C 1.289062 -15.9375 0.953125 -16.078125 0.484375 -16.078125 Z M 0.484375 -16.234375 "/></g></g></g><g clip-path="url(#5147585033)"><path fill="#ffffff" d="M 1.945312 18.234375 L 40.699219 18.234375 L 40.699219 22.75 L 1.945312 22.75 Z M 1.945312 18.234375 " fill-opacity="1" fill-rule="nonzero"/></g><g clip-path="url(#b442b2db74)"><g clip-path="url(#fac25ca1e9)"><g clip-path="url(#1a2ec898ab)"><g clip-path="url(#f943af95f3)"><path fill="#000000" d="M 10.21875 5.796875 L 10.605469 5.527344 L 10.738281 5.441406 L 11 5.265625 L 11.265625 5.101562 L 11.402344 5.019531 L 11.535156 4.9375 L 11.808594 4.78125 L 12.082031 4.628906 L 12.222656 4.550781 L 12.363281 4.480469 C 12.453125 4.429688 12.546875 4.382812 12.640625 4.335938 L 12.925781 4.195312 C 12.972656 4.171875 13.019531 4.148438 13.066406 4.128906 L 13.355469 3.996094 C 13.402344 3.976562 13.449219 3.953125 13.496094 3.933594 C 13.691406 3.851562 13.882812 3.765625 14.078125 3.691406 L 14.226562 3.632812 L 14.300781 3.601562 L 14.375 3.574219 L 14.667969 3.464844 C 16.269531 2.894531 17.914062 2.550781 19.609375 2.433594 C 19.820312 2.421875 20.03125 2.410156 20.242188 2.40625 C 20.453125 2.394531 20.664062 2.394531 20.875 2.394531 C 20.980469 2.394531 21.089844 2.394531 21.195312 2.398438 L 21.351562 2.398438 L 21.511719 2.40625 C 21.617188 2.410156 21.722656 2.414062 21.828125 2.417969 L 22.144531 2.4375 C 22.566406 2.46875 22.988281 2.511719 23.40625 2.570312 L 23.566406 2.59375 C 23.617188 2.601562 23.671875 2.609375 23.722656 2.617188 L 24.035156 2.667969 C 24.246094 2.707031 24.453125 2.742188 24.660156 2.789062 C 26.332031 3.140625 27.925781 3.710938 29.441406 4.503906 C 30.949219 5.292969 32.359375 6.277344 33.605469 7.441406 L 33.835938 7.664062 L 33.953125 7.777344 L 34.066406 7.890625 L 34.289062 8.121094 L 34.507812 8.355469 C 34.542969 8.394531 34.582031 8.429688 34.617188 8.472656 L 34.722656 8.59375 C 34.792969 8.671875 34.863281 8.753906 34.933594 8.832031 L 35.136719 9.078125 C 35.171875 9.121094 35.207031 9.160156 35.238281 9.203125 L 35.335938 9.328125 C 35.402344 9.414062 35.46875 9.496094 35.535156 9.582031 L 35.726562 9.839844 C 35.757812 9.882812 35.789062 9.925781 35.820312 9.96875 L 35.910156 10.101562 C 35.972656 10.1875 36.035156 10.277344 36.09375 10.363281 C 36.332031 10.71875 36.554688 11.082031 36.765625 11.453125 C 36.976562 11.824219 37.175781 12.203125 37.359375 12.589844 C 37.542969 12.972656 37.710938 13.367188 37.863281 13.765625 C 38.019531 14.160156 38.160156 14.5625 38.285156 14.96875 L 38.371094 15.277344 C 38.386719 15.328125 38.402344 15.378906 38.414062 15.429688 L 38.457031 15.585938 L 38.476562 15.660156 L 38.535156 15.894531 C 38.5625 15.996094 38.585938 16.101562 38.609375 16.203125 C 38.796875 17.03125 38.917969 17.867188 38.980469 18.714844 C 39.007812 19.136719 39.019531 19.558594 39.019531 19.980469 C 39.015625 20.398438 38.996094 20.820312 38.957031 21.238281 L 38.871094 21.238281 C 38.847656 20.820312 38.816406 20.40625 38.769531 19.992188 C 38.722656 19.578125 38.667969 19.167969 38.597656 18.761719 C 38.460938 17.945312 38.273438 17.144531 38.035156 16.355469 C 38.003906 16.253906 37.976562 16.15625 37.945312 16.058594 L 37.898438 15.914062 L 37.871094 15.839844 L 37.847656 15.765625 C 37.8125 15.667969 37.78125 15.570312 37.75 15.476562 L 37.644531 15.1875 C 37.5 14.800781 37.347656 14.421875 37.179688 14.050781 C 37.011719 13.675781 36.835938 13.308594 36.644531 12.945312 L 36.5 12.675781 C 36.453125 12.585938 36.402344 12.496094 36.351562 12.40625 L 36.316406 12.339844 L 36.277344 12.273438 L 36.199219 12.144531 C 36.175781 12.097656 36.148438 12.054688 36.121094 12.011719 L 36.042969 11.878906 L 35.964844 11.75 C 35.9375 11.707031 35.910156 11.664062 35.882812 11.621094 L 35.800781 11.492188 L 35.757812 11.425781 L 35.71875 11.363281 L 35.550781 11.105469 L 35.375 10.855469 C 35.140625 10.519531 34.902344 10.191406 34.648438 9.871094 L 34.554688 9.75 C 34.523438 9.710938 34.492188 9.671875 34.460938 9.632812 L 34.265625 9.394531 C 34.234375 9.355469 34.199219 9.316406 34.167969 9.277344 L 34.066406 9.164062 L 33.96875 9.046875 C 33.933594 9.007812 33.898438 8.972656 33.867188 8.933594 L 33.453125 8.480469 L 33.351562 8.367188 L 33.242188 8.257812 L 33.027344 8.039062 C 32.449219 7.460938 31.832031 6.925781 31.179688 6.433594 C 31.019531 6.304688 30.851562 6.191406 30.6875 6.070312 C 30.601562 6.011719 30.515625 5.953125 30.433594 5.894531 L 30.304688 5.808594 L 30.175781 5.726562 C 29.835938 5.5 29.480469 5.292969 29.121094 5.09375 C 26.25 3.511719 22.933594 2.726562 19.628906 2.855469 C 18.800781 2.886719 17.980469 2.972656 17.164062 3.117188 L 17.011719 3.144531 C 16.960938 3.152344 16.910156 3.164062 16.859375 3.171875 L 16.554688 3.234375 L 16.253906 3.300781 L 16.101562 3.335938 L 15.949219 3.375 C 15.847656 3.398438 15.75 3.425781 15.648438 3.449219 L 15.347656 3.535156 C 15.25 3.5625 15.148438 3.59375 15.050781 3.621094 L 14.828125 3.691406 C 14.800781 3.695312 14.777344 3.707031 14.753906 3.714844 L 14.457031 3.8125 L 14.382812 3.835938 L 14.3125 3.863281 L 14.164062 3.917969 C 13.96875 3.984375 13.777344 4.0625 13.582031 4.136719 C 13.535156 4.152344 13.488281 4.175781 13.4375 4.195312 L 13.292969 4.253906 L 13.152344 4.316406 C 13.101562 4.335938 13.054688 4.355469 13.007812 4.378906 L 12.722656 4.503906 C 12.628906 4.546875 12.535156 4.59375 12.441406 4.636719 L 12.300781 4.703125 L 12.160156 4.773438 L 11.882812 4.914062 L 11.605469 5.0625 L 11.46875 5.136719 L 11.335938 5.214844 L 11.0625 5.371094 L 10.796875 5.53125 L 10.664062 5.613281 L 10.53125 5.699219 L 10.265625 5.867188 Z M 10.21875 5.796875 " fill-opacity="1" fill-rule="nonzero"/></g></g></g></g><g clip-path="url(#47f721ad23)"><g clip-path="url(#3d28fe3580)"><g clip-path="url(#84c3ecd313)"><g clip-path="url(#7ed3c47d7d)"><path fill="#000000" d="M 30.957031 36.085938 L 30.707031 36.261719 L 30.582031 36.347656 C 30.539062 36.375 30.496094 36.40625 30.453125 36.433594 L 30.199219 36.601562 C 30.113281 36.65625 30.023438 36.710938 29.9375 36.761719 C 29.765625 36.875 29.585938 36.972656 29.410156 37.078125 C 29.367188 37.105469 29.320312 37.128906 29.277344 37.152344 L 29.144531 37.226562 C 29.054688 37.277344 28.964844 37.328125 28.875 37.375 L 28.601562 37.515625 C 28.554688 37.539062 28.511719 37.5625 28.464844 37.582031 L 28.328125 37.648438 C 28.144531 37.742188 27.957031 37.824219 27.769531 37.910156 C 27.394531 38.074219 27.015625 38.230469 26.632812 38.371094 C 26.4375 38.445312 26.246094 38.507812 26.050781 38.574219 C 26 38.589844 25.953125 38.605469 25.902344 38.621094 L 25.757812 38.667969 L 25.609375 38.714844 C 25.5625 38.730469 25.511719 38.742188 25.460938 38.757812 L 25.164062 38.839844 C 25.066406 38.867188 24.96875 38.890625 24.867188 38.917969 L 24.71875 38.957031 C 24.667969 38.96875 24.617188 38.980469 24.570312 38.992188 L 24.269531 39.0625 C 23.464844 39.238281 22.652344 39.359375 21.828125 39.425781 C 18.546875 39.703125 15.183594 39.074219 12.203125 37.617188 L 12.066406 37.550781 L 11.925781 37.480469 L 11.648438 37.339844 L 11.375 37.191406 C 11.332031 37.164062 11.285156 37.140625 11.238281 37.117188 L 11.105469 37.039062 C 10.742188 36.835938 10.390625 36.617188 10.042969 36.390625 L 9.785156 36.21875 L 9.71875 36.175781 L 9.65625 36.128906 L 9.527344 36.039062 L 9.402344 35.949219 L 9.335938 35.90625 L 9.273438 35.859375 L 9.023438 35.675781 C 8.691406 35.421875 8.367188 35.164062 8.054688 34.886719 C 7.425781 34.339844 6.839844 33.75 6.300781 33.117188 C 6.03125 32.796875 5.769531 32.472656 5.527344 32.136719 L 5.433594 32.007812 L 5.386719 31.945312 C 5.375 31.925781 5.359375 31.902344 5.34375 31.882812 L 5.167969 31.625 C 5.105469 31.539062 5.050781 31.453125 4.996094 31.363281 L 4.828125 31.101562 C 3.941406 29.683594 3.273438 28.171875 2.824219 26.5625 C 2.605469 25.765625 2.441406 24.957031 2.339844 24.136719 L 2.308594 23.828125 L 2.292969 23.675781 C 2.285156 23.625 2.28125 23.574219 2.277344 23.523438 L 2.257812 23.214844 C 2.25 23.113281 2.242188 23.011719 2.238281 22.910156 C 2.230469 22.703125 2.226562 22.5 2.222656 22.292969 C 2.222656 22.089844 2.226562 21.886719 2.230469 21.679688 L 2.316406 21.675781 C 2.34375 21.878906 2.367188 22.082031 2.394531 22.28125 L 2.484375 22.882812 L 2.59375 23.480469 C 2.601562 23.527344 2.613281 23.578125 2.625 23.628906 L 2.65625 23.773438 L 2.71875 24.070312 C 2.894531 24.855469 3.121094 25.625 3.390625 26.382812 C 3.929688 27.890625 4.644531 29.3125 5.53125 30.644531 L 5.699219 30.894531 C 5.757812 30.976562 5.808594 31.058594 5.871094 31.136719 L 6.042969 31.378906 C 6.058594 31.398438 6.070312 31.421875 6.085938 31.441406 L 6.132812 31.5 L 6.222656 31.617188 L 6.3125 31.738281 L 6.355469 31.796875 L 6.402344 31.855469 L 6.585938 32.089844 C 6.617188 32.128906 6.648438 32.167969 6.679688 32.203125 L 6.773438 32.320312 L 6.871094 32.433594 C 6.902344 32.472656 6.933594 32.511719 6.964844 32.546875 C 7.480469 33.152344 8.027344 33.730469 8.609375 34.269531 C 8.898438 34.542969 9.203125 34.800781 9.507812 35.054688 L 9.800781 35.289062 L 9.859375 35.332031 L 9.980469 35.421875 L 10.097656 35.511719 L 10.15625 35.558594 L 10.21875 35.601562 L 10.460938 35.777344 C 10.785156 36.003906 11.117188 36.226562 11.460938 36.433594 L 11.585938 36.511719 C 11.628906 36.539062 11.671875 36.5625 11.714844 36.585938 L 11.976562 36.738281 L 12.238281 36.878906 L 12.503906 37.019531 L 12.769531 37.15625 L 13.042969 37.285156 C 13.085938 37.304688 13.128906 37.328125 13.175781 37.347656 L 13.449219 37.472656 C 13.496094 37.492188 13.539062 37.511719 13.585938 37.53125 C 13.769531 37.609375 13.953125 37.6875 14.140625 37.761719 L 14.351562 37.84375 L 14.421875 37.867188 L 14.703125 37.972656 C 14.75 37.988281 14.796875 38.003906 14.84375 38.019531 L 14.984375 38.070312 C 15.082031 38.101562 15.175781 38.132812 15.269531 38.164062 L 15.558594 38.253906 C 15.652344 38.28125 15.75 38.308594 15.847656 38.335938 L 15.988281 38.378906 L 16.136719 38.417969 L 16.425781 38.492188 L 16.71875 38.5625 C 16.765625 38.574219 16.816406 38.585938 16.863281 38.597656 L 17.011719 38.628906 C 17.402344 38.714844 17.796875 38.78125 18.195312 38.839844 L 18.492188 38.882812 C 18.542969 38.890625 18.59375 38.894531 18.640625 38.902344 L 18.792969 38.917969 L 18.941406 38.9375 C 18.992188 38.941406 19.039062 38.945312 19.089844 38.949219 L 19.390625 38.976562 C 21.832031 39.175781 24.214844 38.894531 26.542969 38.125 C 26.929688 38 27.304688 37.859375 27.683594 37.710938 C 27.871094 37.632812 28.058594 37.554688 28.242188 37.472656 L 28.378906 37.410156 C 28.425781 37.390625 28.472656 37.367188 28.519531 37.347656 L 28.792969 37.214844 C 28.886719 37.171875 28.976562 37.125 29.066406 37.082031 L 29.199219 37.011719 C 29.246094 36.988281 29.292969 36.96875 29.335938 36.941406 C 29.515625 36.847656 29.695312 36.753906 29.871094 36.652344 C 29.957031 36.601562 30.046875 36.550781 30.132812 36.5 L 30.394531 36.339844 C 30.4375 36.316406 30.480469 36.289062 30.523438 36.261719 L 30.910156 36.015625 Z M 30.957031 36.085938 " fill-opacity="1" fill-rule="nonzero"/></g></g></g></g><g fill="#000000" fill-opacity="1"><g transform="translate(3.191055, 21.300966)"><g><path d="M 0.859375 0.03125 C 0.703125 0.03125 0.550781 0.0078125 0.40625 -0.03125 C 0.269531 -0.0703125 0.160156 -0.125 0.078125 -0.1875 L 0.234375 -0.515625 C 0.304688 -0.460938 0.398438 -0.414062 0.515625 -0.375 C 0.628906 -0.34375 0.742188 -0.328125 0.859375 -0.328125 C 0.984375 -0.328125 1.078125 -0.34375 1.140625 -0.375 C 1.203125 -0.414062 1.234375 -0.46875 1.234375 -0.53125 C 1.234375 -0.570312 1.210938 -0.609375 1.171875 -0.640625 C 1.140625 -0.671875 1.09375 -0.691406 1.03125 -0.703125 C 0.976562 -0.722656 0.90625 -0.75 0.8125 -0.78125 C 0.664062 -0.8125 0.546875 -0.84375 0.453125 -0.875 C 0.359375 -0.914062 0.273438 -0.972656 0.203125 -1.046875 C 0.140625 -1.117188 0.109375 -1.21875 0.109375 -1.34375 C 0.109375 -1.457031 0.140625 -1.554688 0.203125 -1.640625 C 0.265625 -1.734375 0.351562 -1.804688 0.46875 -1.859375 C 0.59375 -1.921875 0.742188 -1.953125 0.921875 -1.953125 C 1.046875 -1.953125 1.164062 -1.9375 1.28125 -1.90625 C 1.394531 -1.875 1.5 -1.832031 1.59375 -1.78125 L 1.453125 -1.4375 C 1.273438 -1.539062 1.097656 -1.59375 0.921875 -1.59375 C 0.796875 -1.59375 0.703125 -1.570312 0.640625 -1.53125 C 0.585938 -1.488281 0.5625 -1.4375 0.5625 -1.375 C 0.5625 -1.3125 0.59375 -1.257812 0.65625 -1.21875 C 0.726562 -1.1875 0.832031 -1.15625 0.96875 -1.125 C 1.113281 -1.09375 1.234375 -1.054688 1.328125 -1.015625 C 1.421875 -0.984375 1.5 -0.929688 1.5625 -0.859375 C 1.632812 -0.785156 1.671875 -0.6875 1.671875 -0.5625 C 1.671875 -0.445312 1.640625 -0.34375 1.578125 -0.25 C 1.515625 -0.164062 1.421875 -0.0976562 1.296875 -0.046875 C 1.179688 0.00390625 1.035156 0.03125 0.859375 0.03125 Z M 0.859375 0.03125 "/></g></g></g><g fill="#000000" fill-opacity="1"><g transform="translate(5.808183, 21.300966)"><g><path d="M 1.15625 0.03125 C 0.957031 0.03125 0.773438 -0.0078125 0.609375 -0.09375 C 0.453125 -0.175781 0.328125 -0.289062 0.234375 -0.4375 C 0.148438 -0.59375 0.109375 -0.765625 0.109375 -0.953125 C 0.109375 -1.140625 0.148438 -1.304688 0.234375 -1.453125 C 0.328125 -1.609375 0.453125 -1.726562 0.609375 -1.8125 C 0.773438 -1.90625 0.957031 -1.953125 1.15625 -1.953125 C 1.351562 -1.953125 1.53125 -1.90625 1.6875 -1.8125 C 1.84375 -1.726562 1.96875 -1.609375 2.0625 -1.453125 C 2.15625 -1.304688 2.203125 -1.140625 2.203125 -0.953125 C 2.203125 -0.765625 2.15625 -0.59375 2.0625 -0.4375 C 1.96875 -0.289062 1.84375 -0.175781 1.6875 -0.09375 C 1.53125 -0.0078125 1.351562 0.03125 1.15625 0.03125 Z M 1.15625 -0.34375 C 1.269531 -0.34375 1.367188 -0.367188 1.453125 -0.421875 C 1.546875 -0.472656 1.617188 -0.546875 1.671875 -0.640625 C 1.722656 -0.734375 1.75 -0.835938 1.75 -0.953125 C 1.75 -1.078125 1.722656 -1.179688 1.671875 -1.265625 C 1.617188 -1.359375 1.546875 -1.429688 1.453125 -1.484375 C 1.367188 -1.535156 1.269531 -1.5625 1.15625 -1.5625 C 1.039062 -1.5625 0.9375 -1.535156 0.84375 -1.484375 C 0.757812 -1.429688 0.691406 -1.359375 0.640625 -1.265625 C 0.585938 -1.179688 0.5625 -1.078125 0.5625 -0.953125 C 0.5625 -0.835938 0.585938 -0.734375 0.640625 -0.640625 C 0.691406 -0.546875 0.757812 -0.472656 0.84375 -0.421875 C 0.9375 -0.367188 1.039062 -0.34375 1.15625 -0.34375 Z M 1.15625 -0.34375 "/></g></g></g><g fill="#000000" fill-opacity="1"><g transform="translate(8.988507, 21.300966)"><g><path d="M 1.140625 0.03125 C 0.941406 0.03125 0.765625 -0.0078125 0.609375 -0.09375 C 0.453125 -0.175781 0.328125 -0.289062 0.234375 -0.4375 C 0.148438 -0.59375 0.109375 -0.765625 0.109375 -0.953125 C 0.109375 -1.140625 0.148438 -1.304688 0.234375 -1.453125 C 0.328125 -1.609375 0.453125 -1.726562 0.609375 -1.8125 C 0.765625 -1.90625 0.941406 -1.953125 1.140625 -1.953125 C 1.304688 -1.953125 1.457031 -1.921875 1.59375 -1.859375 C 1.726562 -1.796875 1.84375 -1.710938 1.9375 -1.609375 L 1.65625 -1.34375 C 1.519531 -1.488281 1.359375 -1.5625 1.171875 -1.5625 C 1.046875 -1.5625 0.9375 -1.535156 0.84375 -1.484375 C 0.757812 -1.429688 0.691406 -1.359375 0.640625 -1.265625 C 0.585938 -1.179688 0.5625 -1.078125 0.5625 -0.953125 C 0.5625 -0.835938 0.585938 -0.734375 0.640625 -0.640625 C 0.691406 -0.546875 0.757812 -0.472656 0.84375 -0.421875 C 0.9375 -0.367188 1.046875 -0.34375 1.171875 -0.34375 C 1.359375 -0.34375 1.519531 -0.421875 1.65625 -0.578125 L 1.9375 -0.3125 C 1.84375 -0.195312 1.726562 -0.109375 1.59375 -0.046875 C 1.457031 0.00390625 1.304688 0.03125 1.140625 0.03125 Z M 1.140625 0.03125 "/></g></g></g><g fill="#000000" fill-opacity="1"><g transform="translate(11.865362, 21.300966)"><g><path d="M 0.234375 -1.921875 L 0.671875 -1.921875 L 0.671875 0 L 0.234375 0 Z M 0.234375 -1.921875 "/></g></g></g><g fill="#000000" fill-opacity="1"><g transform="translate(13.634965, 21.300966)"><g><path d="M 1.703125 -0.359375 L 1.703125 0 L 0.234375 0 L 0.234375 -1.921875 L 1.671875 -1.921875 L 1.671875 -1.5625 L 0.671875 -1.5625 L 0.671875 -1.140625 L 1.5625 -1.140625 L 1.5625 -0.796875 L 0.671875 -0.796875 L 0.671875 -0.359375 Z M 1.703125 -0.359375 "/></g></g></g><g fill="#000000" fill-opacity="1"><g transform="translate(16.342315, 21.300966)"><g><path d="M 0.625 -1.546875 L 0.015625 -1.546875 L 0.015625 -1.921875 L 1.671875 -1.921875 L 1.671875 -1.546875 L 1.0625 -1.546875 L 1.0625 0 L 0.625 0 Z M 0.625 -1.546875 "/></g></g></g><g fill="#000000" fill-opacity="1"><g transform="translate(18.904766, 21.300966)"><g><path d="M 1.140625 -0.671875 L 1.140625 0 L 0.703125 0 L 0.703125 -0.6875 L -0.03125 -1.921875 L 0.4375 -1.921875 L 0.9375 -1.0625 L 1.453125 -1.921875 L 1.890625 -1.921875 Z M 1.140625 -0.671875 "/></g></g></g><g fill="#000000" fill-opacity="1"><g transform="translate(24.538287, 21.300966)"><g><path d="M 0.234375 -1.921875 L 0.671875 -1.921875 L 0.671875 -0.359375 L 1.625 -0.359375 L 1.625 0 L 0.234375 0 Z M 0.234375 -1.921875 "/></g></g></g><g fill="#000000" fill-opacity="1"><g transform="translate(27.062462, 21.300966)"><g><path d="M 1.15625 0.03125 C 0.957031 0.03125 0.773438 -0.0078125 0.609375 -0.09375 C 0.453125 -0.175781 0.328125 -0.289062 0.234375 -0.4375 C 0.148438 -0.59375 0.109375 -0.765625 0.109375 -0.953125 C 0.109375 -1.140625 0.148438 -1.304688 0.234375 -1.453125 C 0.328125 -1.609375 0.453125 -1.726562 0.609375 -1.8125 C 0.773438 -1.90625 0.957031 -1.953125 1.15625 -1.953125 C 1.351562 -1.953125 1.53125 -1.90625 1.6875 -1.8125 C 1.84375 -1.726562 1.96875 -1.609375 2.0625 -1.453125 C 2.15625 -1.304688 2.203125 -1.140625 2.203125 -0.953125 C 2.203125 -0.765625 2.15625 -0.59375 2.0625 -0.4375 C 1.96875 -0.289062 1.84375 -0.175781 1.6875 -0.09375 C 1.53125 -0.0078125 1.351562 0.03125 1.15625 0.03125 Z M 1.15625 -0.34375 C 1.269531 -0.34375 1.367188 -0.367188 1.453125 -0.421875 C 1.546875 -0.472656 1.617188 -0.546875 1.671875 -0.640625 C 1.722656 -0.734375 1.75 -0.835938 1.75 -0.953125 C 1.75 -1.078125 1.722656 -1.179688 1.671875 -1.265625 C 1.617188 -1.359375 1.546875 -1.429688 1.453125 -1.484375 C 1.367188 -1.535156 1.269531 -1.5625 1.15625 -1.5625 C 1.039062 -1.5625 0.9375 -1.535156 0.84375 -1.484375 C 0.757812 -1.429688 0.691406 -1.359375 0.640625 -1.265625 C 0.585938 -1.179688 0.5625 -1.078125 0.5625 -0.953125 C 0.5625 -0.835938 0.585938 -0.734375 0.640625 -0.640625 C 0.691406 -0.546875 0.757812 -0.472656 0.84375 -0.421875 C 0.9375 -0.367188 1.039062 -0.34375 1.15625 -0.34375 Z M 1.15625 -0.34375 "/></g></g></g><g fill="#000000" fill-opacity="1"><g transform="translate(30.242785, 21.300966)"><g><path d="M 1.515625 -0.984375 L 1.921875 -0.984375 L 1.921875 -0.203125 C 1.816406 -0.128906 1.695312 -0.0703125 1.5625 -0.03125 C 1.425781 0.0078125 1.289062 0.03125 1.15625 0.03125 C 0.957031 0.03125 0.773438 -0.0078125 0.609375 -0.09375 C 0.453125 -0.175781 0.328125 -0.289062 0.234375 -0.4375 C 0.148438 -0.59375 0.109375 -0.765625 0.109375 -0.953125 C 0.109375 -1.140625 0.148438 -1.304688 0.234375 -1.453125 C 0.328125 -1.609375 0.453125 -1.726562 0.609375 -1.8125 C 0.773438 -1.90625 0.957031 -1.953125 1.15625 -1.953125 C 1.320312 -1.953125 1.472656 -1.921875 1.609375 -1.859375 C 1.753906 -1.804688 1.867188 -1.722656 1.953125 -1.609375 L 1.671875 -1.359375 C 1.535156 -1.492188 1.375 -1.5625 1.1875 -1.5625 C 1.0625 -1.5625 0.953125 -1.535156 0.859375 -1.484375 C 0.765625 -1.441406 0.691406 -1.375 0.640625 -1.28125 C 0.585938 -1.1875 0.5625 -1.078125 0.5625 -0.953125 C 0.5625 -0.835938 0.585938 -0.734375 0.640625 -0.640625 C 0.691406 -0.546875 0.765625 -0.472656 0.859375 -0.421875 C 0.953125 -0.367188 1.054688 -0.34375 1.171875 -0.34375 C 1.304688 -0.34375 1.421875 -0.367188 1.515625 -0.421875 Z M 1.515625 -0.984375 "/></g></g></g></svg>